<svg width="21" height="21" viewBox="0 0 21 21" fill="none" xmlns="http://www.w3.org/2000/svg">
<path d="M8.86817 12.9617C8.73914 13.0923 8.66774 13.2671 8.66936 13.4487C8.67097 13.6302 8.74546 13.8038 8.87679 13.9322C9.00813 14.0605 9.18578 14.1334 9.37151 14.1349C9.55723 14.1365 9.73616 14.0667 9.86975 13.9406L13.648 10.234C13.681 10.2018 13.7071 10.1636 13.725 10.1216C13.7429 10.0795 13.752 10.0345 13.752 9.98892C13.752 9.94339 13.7429 9.89831 13.725 9.85625C13.7071 9.8142 13.681 9.776 13.648 9.74385L9.86975 6.03862C9.73616 5.91251 9.55723 5.84273 9.37151 5.8443C9.18578 5.84588 9.00813 5.91869 8.87679 6.04705C8.74546 6.17541 8.67097 6.34905 8.66936 6.53057C8.66774 6.71209 8.73914 6.88697 8.86817 7.01754L11.2 9.30769H1.70833C1.52047 9.30769 1.3403 9.38063 1.20747 9.51046C1.07463 9.6403 1 9.81639 1 10C1 10.1836 1.07463 10.3597 1.20747 10.4895C1.3403 10.6194 1.52047 10.6923 1.70833 10.6923H11.2L8.86817 12.9617ZM16.5833 1H7.375C7.18714 1 7.00697 1.07294 6.87413 1.20277C6.74129 1.33261 6.66667 1.5087 6.66667 1.69231C6.66667 1.87592 6.74129 2.05201 6.87413 2.18184C7.00697 2.31168 7.18714 2.38462 7.375 2.38462H15.875C16.0629 2.38462 16.243 2.45755 16.3759 2.58739C16.5087 2.71722 16.5833 2.89331 16.5833 3.07692V16.9231C16.5833 17.1067 16.5087 17.2828 16.3759 17.4126C16.243 17.5424 16.0629 17.6154 15.875 17.6154H7.02083C6.83297 17.6154 6.6528 17.6883 6.51997 17.8182C6.38713 17.948 6.3125 18.1241 6.3125 18.3077C6.3125 18.4913 6.38713 18.6674 6.51997 18.7972C6.6528 18.9271 6.83297 19 7.02083 19H16.5833C16.9591 19 17.3194 18.8541 17.5851 18.5945C17.8507 18.3348 18 17.9826 18 17.6154V2.38462C18 2.01739 17.8507 1.66521 17.5851 1.40554C17.3194 1.14588 16.9591 1 16.5833 1Z" fill="#3A3A3A"/>
</svg>
