<svg width="24" height="26" viewBox="0 0 24 26" fill="none" xmlns="http://www.w3.org/2000/svg">
<path d="M11.5002 4C10.6466 3.99994 9.80131 4.16498 9.01263 4.48571C8.22396 4.80645 7.50735 5.27658 6.90373 5.86927C6.30012 6.46196 5.82131 7.16559 5.49467 7.93999C5.16802 8.71439 4.99993 9.54438 5 10.3826C5 15.3776 9.96263 21.3885 11.2631 22.8651C11.3329 22.9436 11.4316 22.9917 11.5375 22.999C11.6433 23.0063 11.7479 22.9722 11.8282 22.9041L11.8679 22.8651C13.151 21.3826 18 15.3776 18 10.3821C18 9.54398 17.8319 8.71408 17.5052 7.93977C17.1786 7.16546 16.6998 6.4619 16.0963 5.86927C15.4927 5.27664 14.7762 4.80654 13.9876 4.48581C13.199 4.16508 12.3538 4 11.5002 4ZM11.5002 12.1145C11.0642 12.1145 10.638 11.9876 10.2755 11.7497C9.913 11.5119 9.63044 11.1738 9.46359 10.7783C9.29674 10.3828 9.25309 9.94755 9.33815 9.52767C9.42321 9.10779 9.63316 8.7221 9.94146 8.41938C10.2498 8.11667 10.6426 7.91051 11.0702 7.82699C11.4978 7.74348 11.941 7.78634 12.3439 7.95017C12.7467 8.114 13.091 8.39143 13.3332 8.74739C13.5754 9.10335 13.7047 9.52184 13.7047 9.94995V9.95531C13.7033 10.5285 13.4704 11.0776 13.0571 11.4824C12.6438 11.8872 12.084 12.1145 11.5002 12.1145Z" stroke="#3A3A3A" stroke-opacity="0.5" stroke-width="1.5" stroke-linecap="round" stroke-linejoin="round"/>
</svg>
