<svg width="45" height="45" viewBox="0 0 45 45" fill="none" xmlns="http://www.w3.org/2000/svg">
<path d="M9.29053 22.2617C9.20559 22.2943 9.13255 22.3509 9.08078 22.4243C9.029 22.4977 9.00087 22.5846 9 22.6737C9 22.8526 9.12016 23.0209 9.29053 23.084L14.6474 24.995L25.6839 19.425C25.7422 19.3986 25.8082 19.3928 25.8704 19.4088C25.9326 19.4248 25.9872 19.4616 26.0246 19.5127C26.0597 19.5653 26.075 19.6282 26.0678 19.6906C26.0606 19.753 26.0314 19.811 25.9852 19.8546L18.0638 26.6799L26.8801 32.9178C27.0002 33.002 27.1616 33.023 27.2997 32.9739C27.3689 32.9487 27.4306 32.9072 27.4794 32.8531C27.5282 32.7989 27.5626 32.7338 27.5795 32.6636L31.9876 14.5406C32.0067 14.463 32.0037 14.3819 31.979 14.3059C31.9544 14.2299 31.909 14.1619 31.8478 14.1093C31.7865 14.0566 31.7117 14.0212 31.6315 14.007C31.5512 13.9928 31.4685 14.0003 31.3922 14.0286L9.29053 22.2617Z" stroke="#3A3A3A" stroke-width="1.5" stroke-linecap="round" stroke-linejoin="round"/>
<path d="M4 22.5004C4 27.4071 5.94915 32.1127 9.41865 35.5822C12.8882 39.0517 17.5938 41.0009 22.5004 41.0009C27.4071 41.0009 32.1127 39.0517 35.5822 35.5822C39.0517 32.1127 41.0009 27.4071 41.0009 22.5004C41.0009 17.5938 39.0517 12.8882 35.5822 9.41865C32.1127 5.94915 27.4071 4 22.5004 4C17.5938 4 12.8882 5.94915 9.41865 9.41865C5.94915 12.8882 4 17.5938 4 22.5004Z" stroke="#3A3A3A" stroke-width="1.5" stroke-linejoin="round"/>
</svg>
