<svg width="45" height="45" viewBox="0 0 45 45" fill="none" xmlns="http://www.w3.org/2000/svg">
<path d="M32.2727 6H13.7273C9.45962 6 6 9.45962 6 13.7273V32.2727C6 36.5404 9.45962 40 13.7273 40H32.2727C36.5404 40 40 36.5404 40 32.2727V13.7273C40 9.45962 36.5404 6 32.2727 6Z" stroke="#3A3A3A" stroke-width="1.5" stroke-linecap="round" stroke-linejoin="round"/>
<path d="M15 17C15.1786 19.5249 15.9902 21.9263 17.3286 23.8892C18.667 25.8522 20.4696 27.2851 22.5 28V17M30 17C29 19.619 27 21.4524 24 22.5M24 22.5C27 23.5476 29 25.381 30 28M24 22.5H22.5" stroke="#3A3A3A" stroke-width="1.5" stroke-linecap="round" stroke-linejoin="round"/>
</svg>
